<?xml version="1.0" encoding="utf-8"?>
<!-- Generator: Adobe Illustrator 19.2.1, SVG Export Plug-In . SVG Version: 6.00 Build 0)  -->
<svg version="1.1" id="Calque_1" xmlns="http://www.w3.org/2000/svg" xmlns:xlink="http://www.w3.org/1999/xlink" x="0px" y="0px"
	 viewBox="0 0 432 432" style="enable-background:new 0 0 432 432;" xml:space="preserve">
<style type="text/css">
	.st0{fill:#8CC63F;}
	.st1{fill:#F7931E;}
	.st2{fill:#39B54A;}
	.st3{fill:#61C46E;}
	.st4{fill:#0071BC;}
	.st5{fill:#CCCCCC;}
	.st6{fill:#999999;}
	.st7{fill:#FFFFFF;}
	.st8{fill:#666666;}
	.st9{fill:#BDCCD4;}
	.st10{fill:none;}
	.st11{fill:#29ABE2;}
	.st12{fill:#005D9C;}
	.st13{fill:#A38161;}
	.st14{fill:#D1B08A;}
	.st15{fill:#FBB03B;}
	.st16{fill:#ED1C24;}
	.st17{fill:#D44A50;}
	.st18{fill:#FF3333;}
	.st19{fill:#F15A24;}
	.st20{fill:#FBB80D;}
	.st21{fill:#FBC53B;}
	.st22{fill:#42210B;}
	.st23{fill:#E6E6E6;}
	.st24{fill:#D6D0D0;}
	.st25{fill:#C1E8E8;}
	.st26{fill:#1A1A1A;}
	.st27{fill:#99FFFF;}
	.st28{fill:#FCEE21;}
	.st29{fill:#00A99D;}
	.st30{fill:#22B573;}
	.st31{fill:#DBC0A2;}
	.st32{fill:#B5926B;}
	.st33{fill:#A67C52;}
	.st34{fill:#754C24;}
	.st35{fill:#FFADAD;}
	.st36{fill:#C7B299;}
	.st37{fill:#998675;}
	.st38{fill:#534741;}
	.st39{fill:#FF8C8C;}
	.st40{fill:#EBFCFC;}
	.st41{fill:#D4145A;}
	.st42{fill:#FF00FF;}
	.st43{fill:#FFCCCC;}
	.st44{fill:#FBDECE;}
	.st45{fill:#FF9EC2;}
	.st46{fill:#FF7BAC;}
	.st47{fill:#9E005D;}
	.st48{fill:#FFC600;}
	.st49{fill:#B1337D;}
	.st50{fill:#ED1E79;}
	.st51{fill:#662D91;}
	.st52{fill:#BA9BC9;}
	.st53{fill:#FFD133;}
	.st54{fill:#F79C7C;}
	.st55{fill:#FFDD66;}
	.st56{fill:#F2F2F2;}
	.st57{fill:#C1272D;}
	.st58{fill:#E8FDFF;}
	.st59{fill:#64AB05;}
	.st60{fill:#CCFFFF;}
	.st61{fill:#A9DDF3;}
	.st62{fill:#FFFF00;}
	.st63{fill:#B3B3B3;}
	.st64{fill:#009245;}
	.st65{fill:#FBD3A8;}
	.st66{fill:#FFD6E5;}
	.st67{fill:#FF2B7A;}
	.st68{fill:#785E42;}
	.st69{fill:#D99443;}
	.st70{fill:#66CBC4;}
	.st71{fill:#4D4D4D;}
	.st72{fill:#6B3310;}
	.st73{fill:#FEEFD8;}
	.st74{fill:#D10008;}
	.st75{fill:#FABE78;}
	.st76{fill:#E6ECF0;}
	.st77{fill:#D9E021;}
	.st78{fill:#FDD089;}
	.st79{fill:#FBB400;}
	.st80{fill:#FDDFB1;}
	.st81{fill:#FCC062;}
	.st82{fill:#DAE2E7;}
	.st83{fill:#DEE6EA;}
	.st84{fill:#F9A94B;}
	.st85{fill:#8C6239;}
	.st86{fill:#FF5258;}
	.st87{fill:#FBCB2D;}
	.st88{fill:#F3E3FF;}
	.st89{fill:#00877E;}
	.st90{fill:#CFEDD3;}
	.st91{fill:#ED9396;}
	.st92{fill:#ED454B;}
	.st93{fill:#F56E00;}
	.st94{fill:#CC5C00;}
	.st95{fill:#FFAA00;}
	.st96{fill:#D17100;}
	.st97{fill:#A10006;}
	.st98{fill:#7D0005;}
	.st99{fill:#333333;}
	.st100{fill:#CA5300;}
	.st101{fill:#C96D00;}
	.st102{fill:#006837;}
	.st103{fill:#CDAE78;}
	.st104{fill:#C96F06;}
	.st105{fill:#E0640D;}
	.st106{fill:#FFD26A;}
	.st107{fill:#7B9600;}
	.st108{fill:#CEDEDE;}
	.st109{fill:#5C3303;}
</style>
<g>
	<path class="st0" d="M344.4,104.7c-7.5-14-42.4-10.5-83.2,6.8c4,0.7,8,2,11.8,4c1.1,0.6,2.2,1.1,3.2,1.8c13.2-3,23.1-2.1,25.9,3.3
		c0.1,0.1,0.1,0.3,0.2,0.4c0.1,0.1,0.2,0.3,0.2,0.4c2.6,4.8-0.4,12-7.4,19.9c-7.7,8.8-20.4,18.5-35.8,26.8
		c-14.6,7.9-29,12.9-40.4,14.8c-11.4,1.8-19.8,0.5-22.5-4.6c-0.1-0.1-0.1-0.3-0.2-0.4c-0.1-0.1-0.2-0.3-0.2-0.4
		c-3-5.6,2.3-14.9,13-24.8c0.3-5.1,1.4-10.2,3.5-15.1c-37,24.4-59.2,51.5-51.7,65.5c7.3,13.7,40.8,10.6,80.3-5.6
		c9-3.7,18.3-8.1,27.7-13.1c9.4-5,18.2-10.4,26.2-15.8C330.7,144.6,351.8,118.4,344.4,104.7z"/>
	<g>
		<path class="st4" d="M295.2,141.3c-0.2-0.5-0.3-1-0.5-1.5c-3.3-9-9.5-16.9-18.2-22.3c-0.1-0.1-0.2-0.1-0.3-0.2
			c-1-0.6-2.1-1.2-3.2-1.8c-3.8-1.9-7.8-3.2-11.8-4c-18.8-3.5-38.4,5.7-47.4,23.6c-0.4,0.8-0.8,1.6-1.1,2.4
			c-2.1,4.9-3.3,10-3.5,15.1c0,0.1,0,0.2,0,0.3c-0.5,10.3,2.7,20.4,8.8,28.6c0.3,0.4,0.7,0.9,1,1.3c11.4-1.8,25.7-6.9,40.4-14.8
			C274.8,159.8,287.5,150.1,295.2,141.3z"/>
		<path class="st4" d="M269,184.3c-9.4,5-18.7,9.4-27.7,13.1c20,5.6,41.7-3.5,51.4-22.7c1-2,1.9-4.1,2.6-6.2
			C287.2,174,278.4,179.3,269,184.3z"/>
	</g>
</g>
<g>
	<g>
		<path class="st29" d="M136.9,242.8c-3.6,0-7,0.6-10.3,1.6c-0.6,0.2-1.2,0.4-1.8,0.6c-6.7,2.6-12.4,7.2-16.3,13.2
			c6.7,6.9,13.9,14.1,21.5,21.4c9.3,8.8,18.5,17.1,27.1,24.4c5.5-4.1,9.8-9.8,12-16.5c0.2-0.6,0.4-1.2,0.6-1.9
			c0.8-2.8,1.2-5.8,1.2-8.9C170.9,258,155.7,242.8,136.9,242.8z"/>
		<path class="st29" d="M107.5,259.7c-2.9,5-4.6,10.8-4.6,17c0,18.7,15.2,33.9,33.9,33.9c6.9,0,13.4-2.1,18.8-5.7
			c-8.6-7.3-17.7-15.5-26.9-24.2C121.3,273.7,114.1,266.6,107.5,259.7z"/>
	</g>
	<path class="st4" d="M73.1,208.9c2.8,0,9.9,3.3,22.9,12.8c8.6,6.2,18.4,14.2,28.8,23.3c0.6-0.2,1.2-0.4,1.8-0.6
		c-10.7-9.4-20.8-17.6-29.6-24c-6.9-5-12.6-8.7-16.9-10.8c-5-2.5-7.9-2.9-9.4-1.4c-1.4,1.5-0.8,4.5,1.9,9.3
		c2.4,4.2,4.8,7.5,10.2,14.1c0.6,0.7,4.4,4.1,4.4,4.1s-2.8-3.8-3.4-4.5c-12.2-15-13.1-20.4-11.8-21.8
		C72.2,209.1,72.6,208.9,73.1,208.9z"/>
	<path class="st4" d="M202.5,325.8c-2.4-4.2-6.3-9.7-11.7-16.3c-5.8-7.2-13-15.3-21.2-23.8c-0.2,0.6-0.4,1.3-0.6,1.9
		c7.8,8.2,14.8,16,20.4,23c12.2,15,15,22,13.7,23.4c-0.2,0.2-0.6,0.4-1.1,0.4c-2.8,0-9.9-3.3-22.9-12.8c-6.7-4.9-14.1-10.8-22-17.5
		c-8.7-7.4-17.9-15.6-27.1-24.4c-7.6-7.2-14.9-14.4-21.5-21.4c-3.5-3.6-9-8.2-9-8.2s4.5,5.9,8.1,9.7c6.6,6.9,13.8,14,21.3,21.1
		c9.2,8.7,18.3,16.9,26.9,24.2c8,6.8,15.6,12.9,22.4,17.8c6.9,5,12.6,8.7,16.9,10.8c3.1,1.5,5.4,2.3,7,2.3c1,0,1.8-0.3,2.3-0.9
		C205.8,333.6,205.2,330.6,202.5,325.8z"/>
	<path class="st30" d="M92.8,236.5c-1.2,0-2.4,0.3-3.4,0.9c-0.5,0.3-1,0.6-1.4,1c-1.4,1.3-2.2,3.1-2.2,5.1c0,3.9,3.1,7,7,7
		c1.7,0,3.2-0.6,4.5-1.6c0.4-0.4,0.8-0.8,1.2-1.2c0.8-1.2,1.4-2.6,1.4-4.1C99.8,239.6,96.7,236.5,92.8,236.5z"/>
</g>
<g>
	<path class="st21" d="M335.4,236.8c2.3-3.5-0.6-1.7-2.6-0.4c-2,1.3-22.6,8.1-6.1-5.9c16.4-14,9.7-9.9,9.7-9.9s-8.4,5.8-15.7,8.9
		c-3.7,1.6-8.6,2.9-12.5,3.8c-0.2,5.4,1.2,10.5,3.8,14.9c1.4-0.7,3.5-1.5,5.5-2.3C322.9,243.4,333.1,240.3,335.4,236.8z"/>
	<path class="st21" d="M339.3,249.8c-1,0.3-10.6,4.4-22.4,2.2c-0.9-0.2-1.6-0.3-2.3-0.5c1.1,1.3,2.2,2.5,3.5,3.5
		c5.6,0.2,13.9-0.7,18.7-2.4C342.6,250.5,340.3,249.5,339.3,249.8z"/>
	<path class="st1" d="M341.9,207.4c-2.3,2.5-6.5,6.9-11.6,11c-7.6,6.1,13.6-1.5,16.2-3.2c2.6-1.8-1.2,4.5-10,11.9s-3.8,6.2,5.5,0.1
		c9.2-6,5.2,1.6,0.5,5.2c-4.7,3.6,5.5,0.1,10.3-4.3c4.8-4.5,0.6,4.4-1.5,7.4c-2.1,3-19.2,10.5-24.2,13.2c-5,2.6,6.5-0.8,18.1-5.7
		c11.5-4.9,11.5,1.6,4.9,4.9c-6.6,3.3-3.8,5.2-1.9,4.4c1.9-0.8,5.7-1.3,4,0.2c-1.6,1.5-9.3,4.5-14.8,5.9c-3.3,0.8-7.9,1.2-11,1.4
		c2.4,0.9,5,1.4,7.6,1.6c15.1,0.9,28.1-10.6,29-25.7C363.7,222.2,354.6,210.4,341.9,207.4z"/>
	<path class="st21" d="M310.3,223.6c6.8-1.6,20.9-6.2,26.7-16.9C325.1,206.1,314.6,213.1,310.3,223.6z"/>
	<path class="st16" d="M352.1,252.5c1.6-1.5-2.1-1-4-0.2c-1.9,0.8-4.7-1.1,1.9-4.4c6.6-3.3,6.6-9.8-4.9-4.9
		c-11.5,4.9-23.1,8.3-18.1,5.7c5-2.6,22.1-10.2,24.2-13.2c2.1-3,6.4-11.9,1.5-7.4c-4.8,4.5-15,8-10.3,4.3c4.7-3.6,8.7-11.3-0.5-5.2
		c-9.2,6-14.3,7.3-5.5-0.1s12.6-13.7,10-11.9c-2.6,1.8-23.8,9.4-16.2,3.2c5-4.1,9.3-8.5,11.6-11c-1.5-0.4-3.1-0.6-4.7-0.7
		c-0.1,0-0.2,0-0.3,0c-5.8,10.7-19.9,15.2-26.7,16.9c-1.1,2.7-1.8,5.7-2,8.8c0,0.3,0,0.5,0,0.8c3.9-0.9,8.7-2.2,12.5-3.8
		c7.3-3.1,15.7-8.9,15.7-8.9s6.7-4.1-9.7,9.9c-16.4,14,4.1,7.2,6.1,5.9c2-1.3,4.9-3.1,2.6,0.4c-2.3,3.5-12.5,6.7-17.9,9
		c-1.9,0.8-4,1.6-5.5,2.3c0.7,1.2,1.6,2.4,2.5,3.5c0.7,0.2,1.4,0.3,2.3,0.5c11.8,2.2,21.4-1.9,22.4-2.2c1-0.3,3.3,0.7-2.5,2.9
		c-4.8,1.7-13.1,2.6-18.7,2.4c2.4,2,5.2,3.6,8.3,4.7c3.2-0.2,7.7-0.6,11-1.4C342.8,257,350.5,254,352.1,252.5z"/>
</g>
<g>
	<path class="st15" d="M95,96.5c0.1,0.8-1.6,26-1.6,26l-8.6-3.9l6.5,7.1L69,130.3h22.7l-4.6,7.1l6.8-4.1l1.1,28.7l2.6-28.1l6,3.9
		l-3-7.1l19.3-3.1l-19-2l5.2-5.8c0,0-8.2,3.4-8.2,2.2C97.8,120.9,95,96.5,95,96.5z"/>
	<path class="st21" d="M114.1,150.6c0.1,0.4-0.8,13.3-0.8,13.3l-4.4-2l3.3,3.6l-11.4,2.4h11.6l-2.3,3.6l3.5-2.1l0.5,14.7l1.3-14.4
		l3.1,2l-1.5-3.6l9.9-1.6l-9.8-1l2.6-2.9c0,0-4.2,1.7-4.2,1.1C115.5,163.2,114.1,150.6,114.1,150.6z"/>
	<path class="st1" d="M133.6,116.3c0.1,0.5-1,15.9-1,15.9l-5.3-2.4l4,4.3l-13.6,2.9h13.9l-2.8,4.3l4.2-2.5l0.6,17.6l1.6-17.2
		l3.7,2.4l-1.8-4.3l11.8-1.9l-11.7-1.2l3.2-3.5c0,0-5,2.1-5,1.4S133.6,116.3,133.6,116.3z"/>
</g>
<g>
	<path class="st31" d="M306.5,283.2c-0.4-3-1.6-3.7-3.7-4.5c-0.3-0.9-0.7-1.8-1.1-2.7c-0.7-1.7-1.6-3.9-3.1-5.6c0,0-0.4-0.5-0.9-1.2
		c-6.5-8.6-16.8-14.1-28.5-14.1c-19.7,0-35.7,16-35.7,35.7c0,11.9,5.8,22.4,14.7,28.9c-0.4,1,1.6,2.6,1.6,2.6s15.8,6.2,17.4,6.6
		c1.6,0.4,2.3-1.4,2.3-1.4s4.5,2.6,16.7-2.7c11.9-5.1,17.1-19.5,17.4-20.6c0.3-1,0.8-3.7,1.7-3.7c0.9,0,1.5-0.5,1.7-1.9
		C307.1,297.2,306.9,286.2,306.5,283.2z"/>
	<g>
		<path class="st32" d="M306,295.8c-0.1-1.9-0.9-13.2-0.9-13.4c0,0-0.3-2.6-3.1,1.8c-2.8,4.4,1.1,12.4,2.1,14.5
			C305.2,300.8,306.1,297.6,306,295.8z"/>
		<path class="st32" d="M251.5,319.6c0.2,1.5,6.2,4.7,10.1,5.7c3.1,0.8,7.2,2.9,4.6-1.4C263.6,319.6,251.3,318.1,251.5,319.6z"/>
		<path class="st32" d="M287.3,297.1c-3.1,3-4.8,7.6-4,8.7c0.8,1.1,7.1,1.6,7.7,0.6C292.8,303.3,290.4,294.2,287.3,297.1z"/>
		<path class="st32" d="M264.9,298.1c1.7-8.4-5.3-7.7-6.7-6.9c-1.5,0.8-6.2,2.9-5.6,6C253.1,300.4,263,306.9,264.9,298.1z"/>
		<path class="st32" d="M257.1,286.8l0.4-0.4c2.1-1.8-0.2-4.6-1.5-4c-1.3,0.6-3.5,1.7-2.9,3.5C253.7,287.7,256.7,287.2,257.1,286.8z
			"/>
		<path class="st32" d="M248,288.9c-2.3,0.7-4.3,3-3.2,5.1c1.1,2.1,4.6,1.2,5.5-0.8C251.1,291.2,250.3,288.2,248,288.9z"/>
		<path class="st32" d="M266.9,264.3c-1.3,4.2,2.2,10.5,9.4,8.5c0,0,7.1,0.8,4.8-5.2C278.8,261.7,268.2,260.2,266.9,264.3z
			 M270.7,266.9c-1.2,0.5-2.3-0.8-1.2-1.4C270.5,264.9,271.6,266.6,270.7,266.9z M275.9,270.5c-2.5,1-4.5-1.7-2.4-2.8
			C275.5,266.5,277.8,269.8,275.9,270.5z"/>
	</g>
</g>
</svg>
